HIERARCHY
ROOT root
{
	OFFSET 0.000000 0.000000 0.000000
	CHANNELS 6 Xposition Yposition Zposition Zrotation Yrotation Xrotation
	JOINT lhip
	{
		OFFSET 0.058581 -0.082280 -0.017664
		CHANNELS 3 Zrotation Yrotation Xrotation
		JOINT lknee
		{
			OFFSET 0.043451 -0.386469 0.008037
			CHANNELS 3 Zrotation Yrotation Xrotation
			JOINT lankle
			{
				OFFSET -0.014790 -0.426874 -0.037428
				CHANNELS 3 Zrotation Yrotation Xrotation
				JOINT ltoe
				{
					OFFSET 0.041054 -0.060286 0.122042
					CHANNELS 3 Zrotation Yrotation Xrotation
					End Site
					{
						OFFSET 0.000000 0.000000 0.000000
					}
				}
			}
		}
	}
	JOINT rhip
	{
		OFFSET -0.060310 -0.090513 -0.013543
		CHANNELS 3 Zrotation Yrotation Xrotation
		JOINT rknee
		{
			OFFSET -0.043257 -0.383688 -0.004843
			CHANNELS 3 Zrotation Yrotation Xrotation
			JOINT rankle
			{
				OFFSET 0.019056 -0.420046 -0.034562
				CHANNELS 3 Zrotation Yrotation Xrotation
				JOINT rtoe
				{
					OFFSET -0.034840 -0.062106 0.130323
					CHANNELS 3 Zrotation Yrotation Xrotation
					End Site
					{
						OFFSET 0.000000 0.000000 0.000000
					}
				}
			}
		}
	}
	JOINT lowerback
	{
		OFFSET 0.004439 0.124404 -0.038385
		CHANNELS 3 Zrotation Yrotation Xrotation
		JOINT upperback
		{
			OFFSET 0.004488 0.137956 0.026820
			CHANNELS 3 Zrotation Yrotation Xrotation
			JOINT chest
			{
				OFFSET -0.002265 0.056032 0.002855
				CHANNELS 3 Zrotation Yrotation Xrotation
				JOINT lowerneck
				{
					OFFSET -0.013390 0.211636 -0.033468
					CHANNELS 3 Zrotation Yrotation Xrotation
					JOINT upperneck
					{
						OFFSET 0.010113 0.088937 0.050410
						CHANNELS 3 Zrotation Yrotation Xrotation
						End Site
						{
							OFFSET 0.000000 0.000000 0.000000
						}
					}
				}
				JOINT lclavicle
				{
					OFFSET 0.071702 0.114000 -0.018898
					CHANNELS 3 Zrotation Yrotation Xrotation
					JOINT lshoulder
					{
						OFFSET 0.122921 0.045205 -0.019046
						CHANNELS 3 Zrotation Yrotation Xrotation
						JOINT lelbow
						{
							OFFSET 0.255332 -0.015649 -0.022946
							CHANNELS 3 Zrotation Yrotation Xrotation
							JOINT lwrist
							{
								OFFSET 0.265709 0.012698 -0.007375
								CHANNELS 3 Zrotation Yrotation Xrotation
								End Site
								{
									OFFSET 0.000000 0.000000 0.000000
								}
							}
						}
					}
				}
				JOINT rclavicle
				{
					OFFSET -0.082954 0.112472 -0.023707
					CHANNELS 3 Zrotation Yrotation Xrotation
					JOINT rshoulder
					{
						OFFSET -0.113228 0.046853 -0.008472
						CHANNELS 3 Zrotation Yrotation Xrotation
						JOINT relbow
						{
							OFFSET -0.260127 -0.014369 -0.031269
							CHANNELS 3 Zrotation Yrotation Xrotation
							JOINT rwrist
							{
								OFFSET -0.269108 0.006794 -0.006027
								CHANNELS 3 Zrotation Yrotation Xrotation
								End Site
								{
									OFFSET 0.000000 0.000000 0.000000
								}
							}
						}
					}
				}
			}
		}
	}
}
MOTION
Frames: 10
Frame Time: 0.033333
-1.614826 0.242174 0.984777 93.729870 0.041996 89.876655 0.400624 1.765593 0.722078 -1.236741 -6.076942 4.460795 6.560028 12.449756 -13.409965 0.000000 -0.000000 0.000000 0.112861 -1.493010 -5.269632 0.641728 -1.051063 15.029359 1.064644 -9.386687 -14.925320 0.000000 -0.000000 0.000000 0.706118 0.440166 5.110743 1.379294 0.076578 -5.272230 0.636676 -2.105080 2.830268 2.462820 -2.811114 -1.807843 -0.881819 -5.852011 7.952570 -26.869179 3.394044 3.366932 -57.861797 -6.636670 9.988923 6.060003 -28.127081 14.669292 -2.468680 0.599899 1.091596 24.764635 0.578039 -0.463391 57.672864 2.529708 16.280875 -10.985414 27.330493 6.123816 -2.354256 0.113409 -0.228807 
-1.613676 0.241258 0.981566 93.671599 0.037675 89.067030 0.620250 2.011901 1.466011 -1.332413 -5.910178 4.407056 5.787076 12.071831 -13.295437 0.000000 -0.000000 0.000000 0.114051 -1.699176 -4.362525 0.660233 -0.853051 14.892342 1.230566 -9.304515 -15.202695 0.000000 -0.000000 0.000000 1.477244 -0.406434 6.126884 1.063355 -1.033123 -1.846888 -0.198001 -1.125969 -0.215334 3.230804 -1.446339 -3.969681 -1.302838 -6.170765 9.097868 -25.532003 4.410468 1.837409 -58.687089 -6.192996 10.268125 5.700605 -28.084457 15.565283 -2.857986 -0.074304 0.768886 24.619840 0.912417 -0.671402 58.828621 3.180636 16.983232 -11.069815 26.608416 5.944807 -2.379303 0.199887 -0.219209 
-1.612821 0.241071 0.981405 93.542491 -0.004847 89.026527 0.576222 2.043884 1.491931 -1.326429 -5.855182 4.482285 5.754952 12.104020 -13.375733 0.000000 -0.000000 0.000000 0.093250 -1.668131 -4.258279 0.658066 -0.795461 14.835547 1.320393 -9.289420 -15.254269 0.000000 -0.000000 0.000000 1.516544 -0.466702 6.232781 1.043134 -1.042755 -1.944103 -0.211717 -1.106356 -0.177649 3.204421 -1.412327 -4.112742 -1.376500 -6.241879 9.384528 -25.532820 4.392211 1.815927 -58.840116 -6.274089 10.252653 5.763430 -27.722625 15.419087 -2.861709 -0.122270 0.974081 24.716859 0.977636 -0.597710 58.897387 3.164587 17.018380 -10.999169 26.212382 5.906409 -2.556449 0.359171 -0.005090 
-1.611857 0.240900 0.981379 93.397314 -0.044351 89.021569 0.536324 2.091874 1.571898 -1.309220 -5.786710 4.463202 5.826723 12.129853 -13.415529 0.000000 -0.000000 0.000000 0.070092 -1.650409 -4.212240 0.660075 -0.718416 14.860264 1.301943 -9.248200 -15.292418 0.000000 -0.000000 0.000000 1.572183 -0.531463 6.306651 1.077806 -1.081569 -2.047857 -0.130226 -1.257707 -0.237130 3.074565 -1.189230 -4.057514 -1.465110 -5.699084 9.287908 -25.682011 4.443211 1.841833 -58.819936 -6.119667 10.125688 5.758557 -27.566408 15.460307 -2.931035 -0.123073 0.910712 24.564227 1.068275 -0.299704 59.135396 3.171816 17.000292 -11.010538 25.942255 5.957878 -2.525065 0.345353 0.026265 
-1.611290 0.240947 0.981485 93.342356 -0.062988 89.001590 0.511017 2.189667 1.617797 -1.277688 -5.821544 4.463614 5.927199 12.127582 -13.427901 0.000000 -0.000000 0.000000 0.055545 -1.685384 -4.185362 0.672446 -0.671367 14.897765 1.211327 -9.246852 -15.303025 0.000000 -0.000000 0.000000 1.650738 -0.598380 6.435361 1.154830 -1.104917 -2.129301 0.043996 -1.621067 -0.474679 2.790341 -0.992320 -3.882164 -1.753779 -4.741372 9.070445 -26.149450 4.663028 1.699543 -58.435136 -5.727686 9.862556 5.493066 -27.640461 15.734412 -3.018946 -0.108655 0.870336 24.262810 1.252616 0.193360 59.294436 3.340170 16.900060 -10.981173 25.696296 5.953070 -2.547536 0.382545 0.155718 
-1.610692 0.240730 0.981210 93.300356 -0.056386 89.000991 0.541919 2.203745 1.679352 -1.289894 -5.817183 4.403888 5.840691 12.152678 -13.435055 0.000000 -0.000000 0.000000 0.077162 -1.680930 -4.170991 0.661446 -0.664323 14.934378 1.287407 -9.221853 -15.374671 0.000000 -0.000000 0.000000 1.508002 -0.554359 6.295774 1.189674 -1.173000 -1.935051 -0.050043 -1.352791 -0.180284 2.989828 -1.310571 -4.063221 -1.412316 -5.897343 9.262847 -25.652397 4.427945 1.807895 -58.833341 -6.205370 10.154877 5.604903 -27.428911 15.592158 -2.870725 -0.096418 0.950603 24.686603 1.006215 -0.316402 59.017714 3.031879 16.952246 -10.826540 25.729315 6.046169 -2.492828 0.401828 0.113890 
-1.610057 0.240632 0.981302 93.251756 -0.064124 89.064604 0.526487 2.169468 1.733111 -1.269615 -5.825713 4.250617 5.819472 12.251740 -13.377392 0.000000 -0.000000 0.000000 0.084293 -1.621030 -4.176005 0.680729 -0.597863 14.879025 1.291245 -9.312143 -15.354793 0.000000 -0.000000 0.000000 1.546758 -0.644531 6.256625 1.234647 -1.235179 -1.980530 0.008945 -1.458748 -0.286650 2.948875 -1.194977 -4.083992 -1.466396 -5.620973 9.319794 -25.719091 4.418169 1.942969 -58.741675 -6.117797 10.108292 5.586575 -27.472406 15.562349 -2.946133 -0.174513 0.741797 24.576788 1.085379 -0.070793 59.143395 2.921830 16.982624 -10.909122 25.622897 6.049803 -2.453117 0.369557 0.058931 
-1.609608 0.240548 0.981297 93.203389 -0.059708 89.098113 0.546103 2.197729 1.764520 -1.281849 -5.835997 4.190307 5.782318 12.287880 -13.402714 0.000000 -0.000000 0.000000 0.091210 -1.614305 -4.174939 0.689938 -0.574037 14.856960 1.347514 -9.287448 -15.393313 0.000000 -0.000000 0.000000 1.484880 -0.664342 6.271052 1.250591 -1.285182 -1.985307 -0.024060 -1.380956 -0.163323 3.043792 -1.405043 -4.105983 -1.255421 -6.128484 9.368779 -25.522039 4.343395 1.981673 -58.800204 -6.306923 10.211571 5.604463 -27.515736 15.502462 -2.867048 -0.136431 0.752528 24.760850 0.966038 -0.318353 59.028469 2.696037 17.004350 -10.794607 25.578030 6.127732 -2.408107 0.366675 0.073918 
-1.609049 0.240535 0.981337 93.111975 -0.064338 89.138717 0.550052 2.240971 1.822857 -1.282403 -5.845474 4.102372 5.807220 12.304995 -13.403168 0.000000 -0.000000 0.000000 0.081773 -1.625803 -4.141249 0.716997 -0.514907 14.761315 1.343394 -9.273057 -15.396374 0.000000 -0.000000 0.000000 1.561348 -0.719599 6.289378 1.271170 -1.326276 -2.047907 -0.015074 -1.441668 -0.219953 2.958573 -1.356708 -4.112646 -1.259238 -5.996673 9.325817 -25.607528 4.307543 1.993277 -58.637464 -6.284052 10.156263 5.542255 -27.533320 15.496340 -2.847295 -0.137771 0.693144 24.694515 0.982187 -0.223491 59.078286 2.594355 16.994848 -10.761512 25.489373 6.187953 -2.402078 0.358798 0.069875 
-1.608582 0.240469 0.981292 92.988963 -0.038916 89.190364 0.588612 2.298687 1.871489 -1.279230 -5.826955 4.003483 5.801568 12.300965 -13.417825 0.000000 -0.000000 0.000000 0.110714 -1.551195 -4.139083 0.727940 -0.485434 14.704055 1.315628 -9.234201 -15.400902 0.000000 -0.000000 0.000000 1.614855 -0.769189 6.386470 1.292140 -1.339965 -2.071137 0.009591 -1.513171 -0.247759 2.922695 -1.443067 -4.141027 -1.150853 -5.980695 9.096899 -25.652274 4.214612 2.002540 -58.510031 -6.323428 10.121205 5.596562 -27.693154 15.432644 -2.756130 -0.176189 0.636602 24.624450 1.022674 -0.211819 59.079297 2.499177 16.970691 -10.687719 25.414069 6.319035 -2.413885 0.290760 0.114087 
